<svg viewBox="0 0 90 90" xmlns="http://www.w3.org/2000/svg"><path d="m6.92 18.51h76.15v69.53h-76.15z" fill="#94d5d2"/><path d="m10.23 18.51v-16.55h69.54v16.55" fill="#ffeb97"/><path d="m10.09 15.37v-13.41h1.9l8.03 5.96z" fill="#94d5d2"/><path d="m20.02 7.92v10.59h-9.93v-3.14z" fill="#7cb3b0"/><path d="m79.91 15.37v-13.41h-1.9l-8.03 5.96z" fill="#94d5d2"/><path d="m69.98 7.92v10.59h9.93v-3.14z" fill="#7cb3b0"/><circle cx="31.76" cy="28.45" fill="#ffeb97" r="3.31"/><circle cx="58.24" cy="28.45" fill="#ffeb97" r="3.31"/><g fill="#576065"><path d="m83.08 90h-76.16a2 2 0 0 1 -2-2v-69.49a2 2 0 0 1 2-2h76.16a2 2 0 0 1 2 2v69.49a2 2 0 0 1 -2 2zm-74.2-3.91h72.24v-65.62h-72.24z"/><path d="m79.77 20.47a2 2 0 0 1 -2-2v-14.56h-65.58v14.6a2 2 0 0 1 -3.91 0v-16.51a2 2 0 0 1 2-2h69.49a2 2 0 0 1 2 2v16.51a2 2 0 0 1 -2 1.96z"/><path d="m6.92 20.47a2 2 0 0 1 -1.18-3.52l11-8.27-7.59-5.09a2 2 0 1 1 2.17-3.26l9.93 6.67a2 2 0 0 1 .09 3.19l-13.24 9.89a1.94 1.94 0 0 1 -1.18.39z"/><path d="m83.08 20.47a1.94 1.94 0 0 1 -1.17-.39l-13.25-9.93a2 2 0 0 1 .09-3.15l9.93-6.67a2 2 0 1 1 2.17 3.26l-7.63 5.08 11 8.27a2 2 0 0 1 -1.18 3.52z"/><path d="m45 60.2a15.22 15.22 0 0 1 -15.2-15.2v-13.24a2 2 0 0 1 3.91 0v13.24a11.29 11.29 0 0 0 22.58 0v-13.24a2 2 0 0 1 3.91 0v13.24a15.22 15.22 0 0 1 -15.2 15.2z"/><path d="m31.76 33.71a5.27 5.27 0 1 1 5.24-5.26 5.27 5.27 0 0 1 -5.24 5.26zm0-6.62a1.35 1.35 0 1 0 1.35 1.35 1.36 1.36 0 0 0 -1.35-1.35z"/><path d="m58.24 33.71a5.27 5.27 0 1 1 5.27-5.27 5.27 5.27 0 0 1 -5.27 5.27zm0-6.62a1.35 1.35 0 1 0 1.35 1.35 1.36 1.36 0 0 0 -1.35-1.35z"/><path d="m20.17 20.47a2 2 0 0 1 -2-2v-9.89a2 2 0 0 1 3.91 0v9.93a2 2 0 0 1 -1.91 1.96z"/><path d="m69.83 20.47a2 2 0 0 1 -2-2v-9.89a2 2 0 0 1 3.91 0v9.93a2 2 0 0 1 -1.91 1.96z"/></g></svg>